0
SECTION
2
HEADER
9
$INSUNITS
70
4
9
$ACADVER
1
AC1014
9
$HANDSEED
5
FFFF
0
ENDSEC
0
SECTION
2
TABLES
0
TABLE
2
VPORT
5
8
100
AcDbSymbolTable
0
ENDTAB
0
TABLE
2
LTYPE
5
5
100
AcDbSymbolTable
0
LTYPE
5
14
100
AcDbSymbolTableRecord
100
AcDbLinetypeTableRecord
2
BYBLOCK
70
0
0
LTYPE
5
15
100
AcDbSymbolTableRecord
100
AcDbLinetypeTableRecord
2
BYLAYER
70
0
0
ENDTAB
0
TABLE
2
LAYER
5
2
100
AcDbSymbolTable
70
2
0
LAYER
5
50
100
AcDbSymbolTableRecord
100
AcDbLayerTableRecord
2
0
70
0
6
CONTINUOUS
0
ENDTAB
0
TABLE
2
STYLE
5
3
100
AcDbSymbolTable
70
1
0
STYLE
5
11
100
AcDbSymbolTableRecord
100
AcDbTextStyleTableRecord
2
STANDARD
70
0
0
ENDTAB
0
TABLE
2
VIEW
5
6
100
AcDbSymbolTable
70
0
0
ENDTAB
0
TABLE
2
UCS
5
7
100
AcDbSymbolTable
70
0
0
ENDTAB
0
TABLE
2
APPID
5
9
100
AcDbSymbolTable
70
2
0
APPID
5
12
100
AcDbSymbolTableRecord
100
AcDbRegAppTableRecord
2
ACAD
70
0
0
ENDTAB
0
TABLE
2
DIMSTYLE
5
A
100
AcDbSymbolTable
70
1
0
ENDTAB
0
TABLE
2
BLOCK_RECORD
5
1
100
AcDbSymbolTable
70
1
0
BLOCK_RECORD
5
1F
100
AcDbSymbolTableRecord
100
AcDbBlockTableRecord
2
*MODEL_SPACE
0
BLOCK_RECORD
5
1B
100
AcDbSymbolTableRecord
100
AcDbBlockTableRecord
2
*PAPER_SPACE
0
ENDTAB
0
ENDSEC
0
SECTION
2
BLOCKS
0
BLOCK
5
20
100
AcDbEntity
100
AcDbBlockBegin
2
*MODEL_SPACE
0
ENDBLK
5
21
100
AcDbEntity
100
AcDbBlockEnd
0
BLOCK
5
1C
100
AcDbEntity
100
AcDbBlockBegin
2
*PAPER_SPACE
0
ENDBLK
5
1D
100
AcDbEntity
100
AcDbBlockEnd
0
ENDSEC
0
SECTION
2
ENTITIES
0
LWPOLYLINE
5
100
100
AcDbEntity
8
0
100
AcDbPolyline
90
10
70
1
43
0.0
10
19
20
1.3877787807814457e-16
10
1
20
-2.7755575615628914e-16
42
-0.41421356237309481
10
0
20
0.99999999999999867
10
0
20
15.010478645132398
10
4.877315179732383
20
49.141462863674327
42
-0.37322584001321418
10
5.8672587428717469
20
50
10
14.147860762032817
20
49.999999999999993
42
-0.37334950137898953
10
15.137865647903126
20
49.141033066877668
10
20
20
15.010478645132398
10
19.999999999999996
20
1.0000000000000002
42
-0.41421356237309392
0
LWPOLYLINE
5
101
100
AcDbEntity
8
0
100
AcDbPolyline
90
8
70
1
43
0.0
10
54.000000447034836
20
0
10
31.000000447034836
20
-1.3877787807814457e-16
42
-0.4142135623730912
10
30.000000447034836
20
0.99999999999999645
10
30.000000447034829
20
50
42
-0.41421356237309553
10
35.000000447034836
20
55
10
50.000000447034836
20
55
42
-0.41421356237309503
10
55.000000447034836
20
50
10
55.000000447034836
20
1
42
-0.41421356237309681
0
LINE
5
102
100
AcDbEntity
8
0
100
AcDbLine
10
65.000000968575478
20
0
30
0
11
85.000000968575478
21
0
31
0
0
LINE
5
103
100
AcDbEntity
8
0
100
AcDbLine
10
85.000000968575478
20
0
30
0
11
85.000000968575478
21
49.5
31
0
0
LINE
5
104
100
AcDbEntity
8
0
100
AcDbLine
10
65.000000968575478
20
49.5
30
0
11
65.000000968575478
21
0
31
0
0
LINE
5
105
100
AcDbEntity
8
0
100
AcDbLine
10
67.500000968575478
20
50
30
0
11
67.500000968575478
21
46
31
0
0
LINE
5
106
100
AcDbEntity
8
0
100
AcDbLine
10
82.500001266598701
20
50
30
0
11
82.500001266598701
21
46
31
0
0
LINE
5
107
100
AcDbEntity
8
0
100
AcDbLine
10
81.500001266598701
20
45
30
0
11
68.500000968575478
21
45
31
0
0
LINE
5
108
100
AcDbEntity
8
0
100
AcDbLine
10
65.500000968575478
20
50
30
0
11
67.500000968575478
21
50
31
0
0
LINE
5
109
100
AcDbEntity
8
0
100
AcDbLine
10
82.500001266598701
20
50
30
0
11
84.500000968575478
21
50
31
0
0
ARC
5
110
100
AcDbEntity
8
0
100
AcDbCircle
10
81.500001266598701
20
46
30
0
40
0.99999999999999645
210
-0
220
0
230
1
100
AcDbArc
50
-90
51
0
0
ARC
5
111
100
AcDbEntity
8
0
100
AcDbCircle
10
68.500000968575478
20
46
30
0
40
0.99999999999999645
210
0
220
0
230
1
100
AcDbArc
50
180
51
270
0
ARC
5
112
100
AcDbEntity
8
0
100
AcDbCircle
10
84.500000968575478
20
49.499999999999993
30
0
40
0.50000000000000711
210
0
220
-0
230
1
100
AcDbArc
50
0
51
90
0
ARC
5
113
100
AcDbEntity
8
0
100
AcDbCircle
10
65.500000968575478
20
49.5
30
0
40
0.49999999999999822
210
0
220
-0
230
1
100
AcDbArc
50
90
51
180
0
LWPOLYLINE
5
114
100
AcDbEntity
8
0
100
AcDbPolyline
90
7
70
1
43
0.0
10
110.00000141561031
20
0
10
95.000001415610313
20
0
10
95.000001415610313
20
45
10
105.00000141561031
20
45
10
105.00000141561031
20
50.00000074505806
10
109.00000156462191
20
50.000000149011598
42
-0.41421351872861806
10
110.00000141561031
20
49.000000149011598
0
LWPOLYLINE
5
115
100
AcDbEntity
8
0
100
AcDbPolyline
90
10
70
1
43
0.0
10
19
20
65.000000968575478
10
0.99999999999999967
20
65.000000968575478
42
-0.41421356237309681
10
-2.9143354396410359e-15
20
66.000000968575478
10
0
20
80
10
4.8773459200735747
20
114.14142144051503
42
-0.37323775477507626
10
5.8672953165616999
20
115.00000008427773
10
14.101033170022186
20
115.00000088437508
42
-0.372978934865967
10
15.090853804958599
20
114.14232201078237
10
20
20
80
10
20
20
66.000000968575478
42
-0.41421356237309631
0
ENDSEC
0
SECTION
2
OBJECTS
0
DICTIONARY
5
C
100
AcDbDictionary
3
ACAD_GROUP
350
D
3
ACAD_MLINESTYLE
350
17
0
DICTIONARY
5
D
100
AcDbDictionary
0
DICTIONARY
5
1A
330
C
100
AcDbDictionary
0
DICTIONARY
5
17
100
AcDbDictionary
0
ENDSEC
0
EOF
